<svg role="img" viewBox="0 0 500 500" xmlns="http://www.w3.org/2000/svg" id="Raylib--Streamline-Simple-Icons" height="500" width="500">
  <desc>
    Raylib Streamline Icon: https://streamlinehq.com
  </desc>
  <title>Raylib</title>
  <path d="M0 0v500h500V0H0Zm31.25 31.25h437.5v437.5h-437.5v-437.5Zm308.6041666666667 322.2708333333333v68.35416666666667h19.520833333333332v-9.770833333333332h-9.770833333333332V353.54166666666663h-9.75Zm29.291666666666664 0v9.75h9.75v-9.75h-9.75Zm19.520833333333332 0v68.35416666666667H437.5v-48.83333333333333h-39.0625v-19.520833333333332h-9.770833333333332Zm-224.60416666666666 19.520833333333332v48.83333333333333h9.770833333333332v-39.0625h39.0625v-9.770833333333332H164.0625Zm58.604166666666664 0v9.770833333333332h39.041666666666664v9.770833333333332h-39.041666666666664v29.291666666666664h48.8125v-48.83333333333333h-48.83333333333333Zm58.58333333333333 0v48.83333333333333h39.0625v9.770833333333332H281.25v9.75h48.83333333333333v-68.33333333333333h-9.770833333333332v39.041666666666664h-29.291666666666664v-39.0625H281.25Zm87.89583333333333 0v48.83333333333333h9.75v-48.83333333333333h-9.75Zm29.291666666666664 9.770833333333332h29.291666666666664v29.291666666666664h-29.291666666666664v-29.291666666666664Zm-166.02083333333334 19.541666666666664h29.291666666666664v9.75h-29.291666666666664v-9.75Z" fill="#000000" stroke-width="20.8333"></path>
</svg>